<svg width="14" height="14" viewBox="0 0 14 14" fill="none" xmlns="http://www.w3.org/2000/svg">
<g id="Group">
<path id="Vector" d="M7 14C5.14346 14 3.36303 13.2625 2.05029 11.9497C0.737494 10.637 0 8.85649 0 7C0 5.14351 0.737494 3.36303 2.05029 2.05029C3.36298 0.737495 5.14351 0 7 0C8.85649 0 10.637 0.737495 11.9497 2.05029C13.2625 3.36298 14 5.14351 14 7C14 8.85649 13.2625 10.637 11.9497 11.9497C10.637 13.2625 8.85649 14 7 14ZM7 0.583346C5.29826 0.583346 3.66602 1.25942 2.46278 2.46273C1.25947 3.66615 0.583396 5.29821 0.583396 6.99995C0.583396 8.70169 1.25947 10.3339 2.46278 11.5372C3.6662 12.7405 5.29826 13.4166 7 13.4166C8.70174 13.4166 10.334 12.7405 11.5372 11.5372C12.7405 10.3338 13.4166 8.70169 13.4166 6.99995C13.4166 5.29821 12.7405 3.66597 11.5372 2.46273C10.3338 1.25942 8.70174 0.583346 7 0.583346Z" fill="#F2F2F2"/>
<path id="Vector_2" d="M11.3756 7.5838H6.70883C6.5478 7.5838 6.41724 7.45323 6.41724 7.2922V2.62549C6.41724 2.46445 6.5478 2.33379 6.70883 2.33379C6.86997 2.33379 7.00053 2.46445 7.00053 2.62549V7.00046H11.3755C11.5365 7.00046 11.6672 7.13102 11.6672 7.29215C11.6672 7.45319 11.5366 7.5838 11.3756 7.5838Z" fill="#F2F2F2"/>
</g>
</svg>
